# xmcd
#
# Track frame offsets: 
#        151
#        12505
#        29985
#        40675
#        55753
#        65764
#        77763
#        94438
#        105945
#        117334
#
# Disc length: 1735 seconds
#
# Revision: 1
# Processed by: cddbd v1.5.2PL0 Copyright (c) Steve Scherf et al.
# Submitted via: ExactAudioCopy v1.3
#
DISCID=8506c50a
DTITLE=Fausto Papetti - Protagonisti. Volume 3
DYEAR=1998
DGENRE=Instrumental
TTITLE0=Maria Elena
TTITLE1=Pensiero stupendo
TTITLE2=Over The Rainbow
TTITLE3=Ebony And Ivory
TTITLE4=La piu' bella del mondo
TTITLE5=Nessuna al mondo
TTITLE6=Aquarius
TTITLE7=E pense a te
TTITLE8=Smoke Gets In Your Eyes
TTITLE9=Amore scusami
EXTD=YEAR: 1998
EXTT0=
EXTT1=
EXTT2=
EXTT3=
EXTT4=
EXTT5=
EXTT6=
EXTT7=
EXTT8=
EXTT9=
PLAYORDER=
